<?xml version="1.0" standalone="no"?>
<!DOCTYPE svg PUBLIC "-//W3C//DTD SVG 20010904//EN"
 "http://www.w3.org/TR/2001/REC-SVG-20010904/DTD/svg10.dtd">
<svg version="1.0" xmlns="http://www.w3.org/2000/svg"
 width="1024.000000pt" height="1024.000000pt" viewBox="0 0 1024.000000 1024.000000"
 preserveAspectRatio="xMidYMid meet">
<metadata>
Created by potrace 1.14, written by Peter Selinger 2001-2017
</metadata>
<g transform="translate(0.000000,1024.000000) scale(0.100000,-0.100000)"
fill="#000000" stroke="none">
<path d="M4527 9164 c-3 -3 -23 -7 -44 -9 -83 -7 -159 -35 -210 -76 -15 -12
-16 -12 -9 1 4 9 1 8 -7 -2 -8 -10 -19 -18 -26 -18 -6 0 -11 -4 -11 -10 0 -5
-11 -12 -25 -16 -14 -3 -22 -10 -19 -15 3 -5 1 -9 -4 -9 -12 0 -82 -68 -118
-115 -40 -52 -78 -124 -99 -185 -1 -3 -5 -14 -9 -25 -29 -76 -38 -102 -42
-118 -2 -10 -6 -28 -10 -40 -4 -12 -8 -33 -9 -47 -1 -14 -5 -32 -8 -40 -6 -17
-6 -21 -10 -112 -1 -38 -4 -68 -7 -68 -3 0 -5 -61 -5 -135 0 -74 2 -135 5
-135 8 0 4 -230 -5 -275 -11 -59 -13 -70 -15 -72 -3 -3 -3 -3 -15 -48 -4 -16
-12 -36 -18 -42 -5 -7 -6 -13 -3 -13 4 0 -2 -13 -13 -29 -11 -15 -18 -30 -15
-33 2 -3 -2 -11 -11 -18 -8 -7 -15 -19 -15 -26 0 -8 -5 -14 -12 -14 -6 0 -8
-3 -5 -7 4 -3 -9 -26 -29 -50 -19 -23 -33 -43 -30 -43 5 0 -111 -114 -154
-152 -11 -10 -24 -18 -30 -18 -5 0 -10 -5 -10 -12 0 -6 -3 -8 -7 -5 -3 4 -12
-2 -20 -13 -8 -11 -21 -20 -29 -20 -8 0 -26 -7 -39 -16 -14 -9 -25 -13 -25 -9
0 3 -7 -1 -16 -9 -8 -9 -20 -14 -25 -11 -5 4 -9 1 -9 -4 0 -6 -9 -11 -19 -11
-11 0 -23 -5 -26 -10 -4 -6 -10 -8 -15 -5 -5 3 -20 -1 -34 -10 -13 -9 -28 -15
-32 -14 -5 1 -12 0 -16 -1 -14 -4 -22 -6 -85 -20 -35 -7 -61 -15 -59 -19 2 -3
-17 -7 -42 -8 -25 -1 -53 -5 -61 -9 -9 -3 -32 -8 -51 -10 -19 -2 -46 -5 -60
-8 -60 -10 -99 -16 -150 -21 -73 -7 -85 -9 -200 -44 -77 -23 -202 -80 -208
-93 -2 -5 -10 -8 -18 -8 -8 0 -14 -4 -14 -10 0 -5 -3 -9 -7 -8 -13 4 -84 -48
-76 -55 3 -4 0 -7 -8 -7 -8 -1 -22 -11 -31 -23 -9 -12 -29 -36 -43 -53 -14
-18 -25 -35 -25 -39 0 -4 -9 -19 -19 -34 -11 -15 -23 -39 -26 -54 -4 -14 -13
-31 -21 -38 -8 -6 -11 -15 -8 -21 3 -5 1 -14 -4 -21 -12 -15 -13 -27 -16 -167
-1 -63 2 -128 7 -145 6 -16 12 -37 15 -45 3 -8 6 -23 8 -32 6 -31 73 -164 94
-186 11 -12 19 -22 16 -22 -6 0 60 -65 93 -92 12 -10 24 -18 27 -18 2 0 17
-11 31 -24 15 -14 30 -23 35 -20 4 3 8 -1 8 -8 0 -9 3 -9 10 2 8 12 10 11 10
-7 0 -14 6 -23 15 -23 8 0 35 -11 60 -25 25 -14 45 -23 45 -20 0 3 9 -4 20
-15 11 -11 29 -20 40 -20 11 0 25 -9 32 -19 10 -16 15 -18 27 -8 12 9 13 9 7
0 -6 -11 -3 -14 19 -13 10 1 33 -25 29 -31 -2 -4 4 -6 14 -5 9 0 16 -4 15 -10
-1 -6 4 -11 12 -11 8 0 12 3 10 7 -2 4 2 7 9 7 7 0 13 -7 12 -15 -1 -8 5 -17
13 -20 8 -3 11 0 7 7 -4 6 -2 11 3 11 10 0 15 -13 13 -31 -1 -6 10 -8 52 -12
13 -1 22 -5 19 -9 -2 -5 1 -8 7 -8 6 0 8 -5 4 -12 -5 -7 -2 -9 9 -5 12 4 14 2
10 -11 -6 -15 -5 -15 10 -4 14 12 16 11 12 -7 -3 -16 1 -21 13 -19 9 2 17 -3
18 -9 1 -7 3 -16 4 -20 1 -5 1 -12 0 -18 -1 -5 2 -7 6 -3 9 10 45 -32 38 -43
-3 -5 0 -9 5 -9 6 0 11 -6 11 -13 0 -7 9 -23 19 -34 14 -15 17 -23 8 -32 -8
-8 -8 -11 0 -11 12 0 39 -61 48 -107 15 -78 18 -106 19 -208 1 -139 -6 -187
-48 -330 -2 -5 -6 -23 -11 -40 -4 -16 -16 -50 -25 -75 -10 -25 -35 -88 -55
-140 -21 -52 -41 -99 -45 -104 -5 -5 -6 -15 -3 -22 3 -8 0 -14 -7 -14 -6 0 -8
-4 -5 -10 3 -5 1 -10 -4 -10 -6 0 -11 -6 -11 -12 0 -7 -19 -60 -41 -118 -22
-58 -42 -113 -44 -122 -2 -9 -8 -25 -14 -36 -6 -11 -7 -22 -4 -26 3 -3 2 -6
-4 -6 -5 0 -10 -6 -11 -12 -1 -15 -6 -37 -22 -98 -7 -25 -14 -56 -17 -70 -2
-14 -7 -38 -12 -55 -11 -43 -11 -268 1 -312 5 -21 14 -54 20 -73 5 -19 9 -39
8 -44 -1 -5 3 -12 8 -15 6 -3 12 -15 14 -26 1 -11 8 -25 13 -32 6 -7 16 -19
23 -28 7 -8 10 -15 7 -15 -4 0 2 -12 13 -27 37 -52 134 -143 152 -143 5 0 10
-4 10 -9 0 -9 60 -37 73 -33 4 1 7 -2 7 -7 0 -9 20 -16 105 -36 36 -9 122 -10
190 -2 137 15 267 96 394 246 22 25 48 56 58 67 10 12 29 36 43 55 14 18 33
41 43 51 9 10 15 18 13 18 -3 0 10 15 27 32 18 18 35 32 39 30 4 -1 5 5 1 14
-3 8 -1 14 5 12 5 -2 21 9 35 25 14 15 24 27 22 27 -3 0 3 8 13 18 9 11 20 17
25 15 7 -4 11 12 8 31 -1 5 5 6 13 3 9 -4 17 1 21 12 3 10 17 23 30 29 14 6
25 20 25 29 0 14 2 15 9 5 6 -10 10 -8 14 8 4 14 10 19 18 14 8 -4 10 -3 5 4
-4 8 3 16 18 22 14 5 26 12 26 15 0 4 -6 3 -12 -1 -7 -4 1 6 17 22 17 16 33
29 37 29 3 0 25 19 47 43 23 24 41 39 41 35 0 -4 5 0 11 10 6 9 14 15 20 12 5
-4 9 1 9 10 0 9 5 13 10 10 6 -3 10 -2 10 3 0 10 37 25 53 23 5 -1 6 2 4 6 -3
5 1 13 8 20 11 10 15 10 18 0 3 -7 6 -4 6 5 1 10 4 17 9 16 15 -4 50 13 56 28
5 12 10 13 27 3 15 -8 19 -8 15 0 -5 7 1 11 14 11 12 0 19 4 16 9 -4 5 2 8 11
7 10 -2 24 4 31 13 10 12 15 13 18 3 3 -6 11 -9 17 -5 7 4 21 9 31 10 11 2 24
7 30 11 11 8 167 7 223 -1 18 -3 40 -12 49 -22 9 -9 23 -14 30 -11 8 3 18 -4
24 -14 6 -11 17 -20 25 -20 8 0 15 -5 15 -12 0 -6 3 -8 7 -5 9 10 138 -123
161 -166 10 -20 22 -34 26 -30 3 3 6 1 6 -6 0 -7 9 -25 20 -41 11 -15 17 -30
13 -34 -3 -3 -1 -6 6 -6 7 0 9 -5 6 -10 -3 -6 -1 -10 5 -10 6 0 8 -5 5 -10 -3
-5 -1 -10 4 -10 6 0 10 -3 9 -7 -1 -5 4 -19 12 -33 7 -14 13 -26 12 -27 -2 -4
7 -31 23 -73 19 -47 39 -128 50 -202 2 -15 9 -45 15 -67 6 -22 13 -59 16 -83
3 -24 7 -48 9 -55 2 -6 7 -69 10 -140 6 -104 4 -140 -10 -193 -9 -36 -21 -71
-27 -77 -6 -7 -7 -13 -3 -13 4 0 2 -7 -5 -15 -7 -8 -9 -15 -5 -15 4 0 2 -7 -5
-15 -7 -8 -9 -15 -5 -15 4 0 0 -11 -9 -25 -9 -14 -15 -25 -12 -25 2 0 -12 -42
-31 -93 -19 -50 -35 -96 -37 -102 -2 -5 -6 -17 -9 -25 -22 -59 -110 -327 -110
-337 0 -7 -3 -13 -7 -13 -4 0 -7 -6 -7 -12 -1 -7 -19 -63 -41 -125 -23 -61
-38 -114 -35 -117 4 -3 1 -6 -6 -6 -7 0 -10 -4 -7 -9 4 -5 2 -21 -4 -36 -28
-74 -32 -294 -6 -380 3 -9 7 -22 23 -63 3 -9 5 -21 4 -25 -1 -5 3 -6 8 -3 5 3
14 -8 21 -24 7 -17 33 -47 57 -68 25 -20 51 -43 58 -49 8 -7 18 -13 24 -13 6
0 11 -3 11 -7 0 -12 51 -33 77 -33 13 0 23 -4 23 -8 0 -11 156 -10 166 1 4 4
14 7 22 7 18 0 109 66 138 100 12 14 31 36 43 49 12 13 21 27 21 31 0 3 9 16
20 28 12 12 18 22 14 22 -4 0 1 9 12 21 10 12 18 23 16 25 -3 4 5 28 36 114
12 33 13 51 18 190 5 128 1 186 -20 280 -3 14 -7 41 -10 60 -8 57 -18 104 -26
115 -4 6 -10 28 -13 50 -3 22 -15 82 -26 132 -29 136 -36 203 -36 348 0 126 9
176 52 285 4 8 7 17 8 20 0 3 9 21 19 40 53 101 80 147 97 166 11 11 19 26 19
33 0 7 5 9 10 6 6 -3 10 -1 10 5 0 13 75 89 115 117 68 47 176 103 199 103 8
0 18 5 21 10 3 6 17 10 31 10 13 0 24 4 24 8 0 5 6 9 13 9 17 1 82 11 82 13 0
4 90 19 152 27 29 3 51 9 48 13 -2 4 8 6 22 5 34 -1 146 39 184 66 16 11 29
18 29 15 0 -8 37 23 89 75 67 68 85 90 107 129 10 19 22 37 25 40 4 3 23 52
42 110 34 102 47 164 53 245 1 22 3 42 4 45 4 12 -9 260 -14 269 -2 3 -7 35
-11 71 -3 36 -8 72 -10 80 -2 8 -7 44 -10 80 -4 36 -9 74 -11 85 -8 36 -19
228 -18 335 0 160 15 306 48 455 8 37 38 140 44 150 4 6 7 17 9 25 2 16 6 25
58 135 37 77 106 193 133 225 27 32 92 120 92 125 0 3 10 16 23 29 12 13 38
43 57 67 19 23 42 49 51 58 8 9 31 36 50 61 18 24 41 52 49 61 49 54 150 195
150 208 0 4 9 16 20 26 11 10 20 24 20 30 0 7 9 24 21 39 11 14 17 26 12 26
-4 0 -3 4 2 8 12 8 56 105 79 174 15 47 21 71 34 138 9 49 8 218 -1 260 -5 19
-9 44 -11 55 -10 73 -95 252 -134 283 -9 6 -12 12 -8 12 5 0 -22 29 -58 65
-36 36 -70 65 -76 65 -5 0 -10 5 -10 10 0 6 -7 10 -15 10 -8 0 -15 4 -15 8 0
11 -56 43 -64 35 -3 -3 -6 -1 -6 5 0 7 -9 12 -19 12 -11 0 -21 3 -23 8 -4 10
-98 45 -125 46 -13 1 -23 5 -23 10 0 4 -7 6 -15 2 -8 -3 -15 -2 -15 2 0 9 -27
14 -92 16 -25 0 -44 4 -41 9 2 4 -8 7 -24 6 -15 -1 -140 1 -278 5 -223 6 -335
14 -430 32 -16 3 -39 7 -50 8 -11 2 -28 7 -37 11 -10 4 -29 8 -43 9 -14 0 -25
5 -25 10 0 4 -7 6 -15 3 -8 -4 -17 -2 -19 2 -3 5 -26 14 -51 21 -24 7 -42 16
-40 20 3 5 -4 6 -15 3 -11 -3 -20 -1 -20 5 0 5 -6 9 -12 8 -7 0 -62 23 -123
53 -60 30 -111 53 -113 52 -2 -1 -15 10 -29 26 -14 15 -22 22 -18 15 6 -11 3
-11 -14 0 -12 7 -21 16 -21 21 0 4 -4 6 -8 3 -4 -2 -23 9 -41 25 -19 16 -40
29 -48 29 -8 0 -11 5 -8 10 3 6 -1 10 -9 10 -9 0 -16 5 -16 10 0 6 -5 10 -10
10 -12 0 -32 15 -58 43 -9 9 -20 17 -25 17 -4 0 -19 10 -32 23 -13 12 -42 38
-65 57 -23 19 -61 52 -84 73 -22 20 -44 37 -48 37 -5 0 -8 7 -8 15 0 8 -4 15
-10 15 -5 0 -92 82 -194 183 -235 233 -295 285 -310 270 -3 -3 -6 1 -6 10 0
10 -7 17 -15 17 -8 0 -15 5 -15 10 0 6 -6 10 -14 10 -8 0 -16 4 -18 8 -4 11
-164 88 -223 107 -66 22 -91 27 -145 29 -25 1 -50 5 -56 8 -6 4 -14 5 -17 2z
m-2062 -3603 c3 -5 2 -12 -3 -15 -5 -3 -9 1 -9 9 0 17 3 19 12 6z"/>
<path d="M2745 5360 c3 -5 8 -10 11 -10 2 0 4 5 4 10 0 6 -5 10 -11 10 -5 0
-7 -4 -4 -10z"/>
</g>
</svg>
